<svg width="73" height="13" viewBox="0 0 73 13" fill="none" xmlns="http://www.w3.org/2000/svg">
<path d="M4.448 0.639999H6.656L10.752 12H8.896L7.872 9.04H3.232L2.192 12H0.352L4.448 0.639999ZM7.328 7.472L5.552 2.288L3.776 7.472H7.328ZM18.2655 3.52V4.896H12.9695L13.8335 4.16V12H12.1375V3.52H18.2655ZM19.1103 7.76C19.1103 6.87467 19.2756 6.096 19.6063 5.424C19.9476 4.752 20.4223 4.23467 21.0303 3.872C21.6383 3.50933 22.3476 3.328 23.1583 3.328C23.8516 3.328 24.4809 3.488 25.0463 3.808C25.6223 4.128 26.0809 4.61867 26.4223 5.28C26.7636 5.93067 26.9503 6.736 26.9823 7.696L26.9983 8.24H20.9023C20.9556 9.02933 21.1796 9.648 21.5743 10.096C21.9689 10.5333 22.4969 10.752 23.1583 10.752C23.5849 10.752 23.9689 10.6347 24.3103 10.4C24.6623 10.1653 24.9236 9.84533 25.0943 9.44L26.8703 9.568C26.6249 10.368 26.1609 11.008 25.4783 11.488C24.8063 11.9573 24.0329 12.192 23.1583 12.192C22.3476 12.192 21.6383 12.0107 21.0303 11.648C20.4223 11.2853 19.9476 10.768 19.6063 10.096C19.2756 9.424 19.1103 8.64533 19.1103 7.76ZM25.2063 6.976C25.1103 6.21867 24.8756 5.664 24.5023 5.312C24.1396 4.94933 23.6916 4.768 23.1583 4.768C22.5396 4.768 22.0383 4.96533 21.6543 5.36C21.2703 5.744 21.0303 6.28267 20.9343 6.976H25.2063ZM30.4898 3.52V12H28.7938V3.52H30.4898ZM35.7698 3.52V12H34.0738V3.52H35.7698ZM35.5778 8.464H28.9218V7.088H35.5778V8.464ZM43.4544 6.496C43.369 5.97333 43.1397 5.56267 42.7664 5.264C42.4037 4.95467 41.977 4.8 41.4864 4.8C40.7717 4.8 40.2117 5.06133 39.8064 5.584C39.401 6.096 39.1984 6.82133 39.1984 7.76C39.1984 8.69867 39.401 9.42933 39.8064 9.952C40.2117 10.464 40.7717 10.72 41.4864 10.72C41.9984 10.72 42.441 10.56 42.8144 10.24C43.1877 9.92 43.417 9.46667 43.5024 8.88L45.2784 8.976C45.2037 9.62667 44.985 10.1973 44.6224 10.688C44.2704 11.168 43.8224 11.5413 43.2784 11.808C42.7344 12.064 42.137 12.192 41.4864 12.192C40.6757 12.192 39.9664 12.0107 39.3584 11.648C38.7504 11.2853 38.2757 10.768 37.9344 10.096C37.6037 9.424 37.4384 8.64533 37.4384 7.76C37.4384 6.87467 37.6037 6.096 37.9344 5.424C38.2757 4.752 38.7504 4.23467 39.3584 3.872C39.9664 3.50933 40.6757 3.328 41.4864 3.328C42.1157 3.328 42.697 3.456 43.2304 3.712C43.7744 3.95733 44.2224 4.31467 44.5744 4.784C44.9264 5.24267 45.1397 5.78133 45.2144 6.4L43.4544 6.496ZM53.791 4.896H50.799V12H49.087V4.896H46.079V3.52H53.791V4.896ZM55.2781 3.52H58.9421C59.9875 3.52 60.8088 3.728 61.4061 4.144C62.0035 4.56 62.3021 5.136 62.3021 5.872C62.3021 6.40533 62.0995 6.832 61.6941 7.152C61.2995 7.46133 60.7555 7.62133 60.0621 7.632V7.6C60.8621 7.61067 61.4915 7.792 61.9501 8.144C62.4195 8.496 62.6541 8.98133 62.6541 9.6C62.6541 10.3467 62.3661 10.9333 61.7901 11.36C61.2141 11.7867 60.4141 12 59.3901 12H55.2781V3.52ZM59.3421 10.64C59.8115 10.64 60.1848 10.5387 60.4621 10.336C60.7395 10.1333 60.8781 9.86133 60.8781 9.52C60.8781 9.15733 60.7395 8.86933 60.4621 8.656C60.1848 8.432 59.8115 8.32 59.3421 8.32H56.9901V10.64H59.3421ZM58.9101 7.056C59.4008 7.056 59.7901 6.96 60.0781 6.768C60.3768 6.56533 60.5261 6.29333 60.5261 5.952C60.5261 5.61067 60.3768 5.34933 60.0781 5.168C59.7901 4.976 59.4008 4.88 58.9101 4.88H56.9901V7.056H58.9101ZM68.4395 12.192C67.6288 12.192 66.9195 12.0107 66.3115 11.648C65.7035 11.2853 65.2288 10.7733 64.8875 10.112C64.5568 9.44 64.3915 8.656 64.3915 7.76C64.3915 6.864 64.5568 6.08533 64.8875 5.424C65.2288 4.752 65.7035 4.23467 66.3115 3.872C66.9195 3.50933 67.6288 3.328 68.4395 3.328C69.2395 3.328 69.9435 3.50933 70.5515 3.872C71.1595 4.23467 71.6288 4.752 71.9595 5.424C72.3008 6.08533 72.4715 6.864 72.4715 7.76C72.4715 8.656 72.3008 9.44 71.9595 10.112C71.6288 10.7733 71.1595 11.2853 70.5515 11.648C69.9435 12.0107 69.2395 12.192 68.4395 12.192ZM68.4395 10.72C69.1542 10.72 69.7088 10.4587 70.1035 9.936C70.5088 9.41333 70.7115 8.688 70.7115 7.76C70.7115 6.832 70.5088 6.10667 70.1035 5.584C69.7088 5.06133 69.1542 4.8 68.4395 4.8C67.7248 4.8 67.1648 5.06133 66.7595 5.584C66.3542 6.096 66.1515 6.82133 66.1515 7.76C66.1515 8.69867 66.3542 9.42933 66.7595 9.952C67.1648 10.464 67.7248 10.72 68.4395 10.72Z" fill="white"/>
</svg>
