<svg width="128" height="62" viewBox="0 0 128 62" fill="none" xmlns="http://www.w3.org/2000/svg">
<g filter="url(#filter0_d_103_2)">
<path d="M11.8924 38.2887L7.33378 54.2802C7.0984 55.1059 7.95602 55.8189 8.73584 55.4459L23.8385 48.2208C24.6416 47.8366 24.5812 46.6841 23.7425 46.3869L17.5312 44.1861C17.3056 44.1062 17.1164 43.9489 16.9978 43.7426L13.7318 38.0639C13.2908 37.2971 12.1347 37.4384 11.8924 38.2887Z" fill="#ADEAA2"/>
<path d="M6.82188 54.2613C6.57764 55.4494 7.82024 56.4357 8.95335 55.8937L24.0564 48.6686L24.1657 48.6121C25.219 48.0067 25.1378 46.4545 24.0273 45.9635L23.9119 45.9184L17.7012 43.7175C17.6165 43.6875 17.5417 43.6357 17.4848 43.5681L17.4346 43.4959L14.1679 37.8171C13.5065 36.6671 11.7731 36.8786 11.4093 38.1537L6.85075 54.1456L6.82188 54.2613Z" stroke="#ADEAA2"/>
</g>
<path d="M108 1H42C31.5066 1 23 9.50659 23 20C23 30.4934 31.5066 39 42 39H108C118.493 39 127 30.4934 127 20C127 9.50659 118.493 1 108 1Z" stroke="#ADEAA2" stroke-width="2"/>
<path d="M42.448 14.64H44.656L48.752 26H46.896L45.872 23.04H41.232L40.192 26H38.352L42.448 14.64ZM45.328 21.472L43.552 16.288L41.776 21.472H45.328ZM56.2655 17.52V18.896H50.9695L51.8335 18.16V26H50.1375V17.52H56.2655ZM57.1103 21.76C57.1103 20.8747 57.2756 20.096 57.6063 19.424C57.9476 18.752 58.4223 18.2347 59.0303 17.872C59.6383 17.5093 60.3476 17.328 61.1583 17.328C61.8516 17.328 62.4809 17.488 63.0463 17.808C63.6223 18.128 64.0809 18.6187 64.4223 19.28C64.7636 19.9307 64.9503 20.736 64.9823 21.696L64.9983 22.24H58.9023C58.9556 23.0293 59.1796 23.648 59.5743 24.096C59.9689 24.5333 60.4969 24.752 61.1583 24.752C61.5849 24.752 61.9689 24.6347 62.3103 24.4C62.6623 24.1653 62.9236 23.8453 63.0943 23.44L64.8703 23.568C64.6249 24.368 64.1609 25.008 63.4783 25.488C62.8063 25.9573 62.0329 26.192 61.1583 26.192C60.3476 26.192 59.6383 26.0107 59.0303 25.648C58.4223 25.2853 57.9476 24.768 57.6063 24.096C57.2756 23.424 57.1103 22.6453 57.1103 21.76ZM63.2063 20.976C63.1103 20.2187 62.8756 19.664 62.5023 19.312C62.1396 18.9493 61.6916 18.768 61.1583 18.768C60.5396 18.768 60.0383 18.9653 59.6543 19.36C59.2703 19.744 59.0303 20.2827 58.9343 20.976H63.2063ZM68.4898 17.52V26H66.7938V17.52H68.4898ZM73.7698 17.52V26H72.0738V17.52H73.7698ZM73.5778 22.464H66.9218V21.088H73.5778V22.464ZM81.4544 20.496C81.369 19.9733 81.1397 19.5627 80.7664 19.264C80.4037 18.9547 79.977 18.8 79.4864 18.8C78.7717 18.8 78.2117 19.0613 77.8064 19.584C77.401 20.096 77.1984 20.8213 77.1984 21.76C77.1984 22.6987 77.401 23.4293 77.8064 23.952C78.2117 24.464 78.7717 24.72 79.4864 24.72C79.9984 24.72 80.441 24.56 80.8144 24.24C81.1877 23.92 81.417 23.4667 81.5024 22.88L83.2784 22.976C83.2037 23.6267 82.985 24.1973 82.6224 24.688C82.2704 25.168 81.8224 25.5413 81.2784 25.808C80.7344 26.064 80.137 26.192 79.4864 26.192C78.6757 26.192 77.9664 26.0107 77.3584 25.648C76.7504 25.2853 76.2757 24.768 75.9344 24.096C75.6037 23.424 75.4384 22.6453 75.4384 21.76C75.4384 20.8747 75.6037 20.096 75.9344 19.424C76.2757 18.752 76.7504 18.2347 77.3584 17.872C77.9664 17.5093 78.6757 17.328 79.4864 17.328C80.1157 17.328 80.697 17.456 81.2304 17.712C81.7744 17.9573 82.2224 18.3147 82.5744 18.784C82.9264 19.2427 83.1397 19.7813 83.2144 20.4L81.4544 20.496ZM91.791 18.896H88.799V26H87.087V18.896H84.079V17.52H91.791V18.896ZM93.2781 17.52H96.9421C97.9875 17.52 98.8088 17.728 99.4061 18.144C100.003 18.56 100.302 19.136 100.302 19.872C100.302 20.4053 100.099 20.832 99.6941 21.152C99.2995 21.4613 98.7555 21.6213 98.0621 21.632V21.6C98.8621 21.6107 99.4915 21.792 99.9501 22.144C100.419 22.496 100.654 22.9813 100.654 23.6C100.654 24.3467 100.366 24.9333 99.7901 25.36C99.2141 25.7867 98.4141 26 97.3901 26H93.2781V17.52ZM97.3421 24.64C97.8115 24.64 98.1848 24.5387 98.4621 24.336C98.7395 24.1333 98.8781 23.8613 98.8781 23.52C98.8781 23.1573 98.7395 22.8693 98.4621 22.656C98.1848 22.432 97.8115 22.32 97.3421 22.32H94.9901V24.64H97.3421ZM96.9101 21.056C97.4008 21.056 97.7901 20.96 98.0781 20.768C98.3768 20.5653 98.5261 20.2933 98.5261 19.952C98.5261 19.6107 98.3768 19.3493 98.0781 19.168C97.7901 18.976 97.4008 18.88 96.9101 18.88H94.9901V21.056H96.9101ZM106.44 26.192C105.629 26.192 104.92 26.0107 104.312 25.648C103.704 25.2853 103.229 24.7733 102.888 24.112C102.557 23.44 102.392 22.656 102.392 21.76C102.392 20.864 102.557 20.0853 102.888 19.424C103.229 18.752 103.704 18.2347 104.312 17.872C104.92 17.5093 105.629 17.328 106.44 17.328C107.24 17.328 107.944 17.5093 108.552 17.872C109.16 18.2347 109.629 18.752 109.96 19.424C110.301 20.0853 110.472 20.864 110.472 21.76C110.472 22.656 110.301 23.44 109.96 24.112C109.629 24.7733 109.16 25.2853 108.552 25.648C107.944 26.0107 107.24 26.192 106.44 26.192ZM106.44 24.72C107.154 24.72 107.709 24.4587 108.104 23.936C108.509 23.4133 108.712 22.688 108.712 21.76C108.712 20.832 108.509 20.1067 108.104 19.584C107.709 19.0613 107.154 18.8 106.44 18.8C105.725 18.8 105.165 19.0613 104.76 19.584C104.354 20.096 104.152 20.8213 104.152 21.76C104.152 22.6987 104.354 23.4293 104.76 23.952C105.165 24.464 105.725 24.72 106.44 24.72Z" fill="white"/>
<defs>
<filter id="filter0_d_103_2" x="4.28796" y="35.5664" width="23.1241" height="23.9793" filterUnits="userSpaceOnUse" color-interpolation-filters="sRGB">
<feFlood flood-opacity="0" result="BackgroundImageFix"/>
<feColorMatrix in="SourceAlpha" type="matrix" values="0 0 0 0 0 0 0 0 0 0 0 0 0 0 0 0 0 0 127 0" result="hardAlpha"/>
<feOffset dy="1"/>
<feGaussianBlur stdDeviation="1"/>
<feComposite in2="hardAlpha" operator="out"/>
<feColorMatrix type="matrix" values="0 0 0 0 0 0 0 0 0 0 0 0 0 0 0 0 0 0 0.08 0"/>
<feBlend mode="normal" in2="BackgroundImageFix" result="effect1_dropShadow_103_2"/>
<feBlend mode="normal" in="SourceGraphic" in2="effect1_dropShadow_103_2" result="shape"/>
</filter>
</defs>
</svg>
